<svg xmlns="http://www.w3.org/2000/svg" width="512" height="512" viewBox="0 0 512 512">
  <defs>
    <linearGradient id="edge" x1="76" y1="58" x2="442" y2="454" gradientUnits="userSpaceOnUse">
      <stop stop-color="#63E6D7"/>
      <stop offset="1" stop-color="#56B9FF"/>
    </linearGradient>
    <linearGradient id="panel" x1="140" y1="120" x2="380" y2="392" gradientUnits="userSpaceOnUse">
      <stop stop-color="#202A37"/>
      <stop offset="1" stop-color="#151C26"/>
    </linearGradient>
  </defs>
  <rect x="20" y="20" width="472" height="472" rx="112" fill="#0D131B"/>
  <rect x="30" y="30" width="452" height="452" rx="102" fill="none" stroke="url(#edge)" stroke-width="14"/>
  <rect x="91" y="99" width="330" height="314" rx="58" fill="url(#panel)" stroke="#344153" stroke-width="7"/>
  <rect x="119" y="140" width="274" height="64" rx="28" fill="#F2F6FA"/>
  <circle cx="151" cy="172" r="12" fill="#63E6D7"/>
  <rect x="179" y="159" width="143" height="11" rx="5.5" fill="#253242"/>
  <rect x="179" y="178" width="91" height="8" rx="4" fill="#75859A"/>
  <rect x="119" y="224" width="274" height="64" rx="28" fill="#F2F6FA"/>
  <circle cx="151" cy="256" r="12" fill="#A7F36B"/>
  <rect x="179" y="243" width="123" height="11" rx="5.5" fill="#253242"/>
  <rect x="179" y="262" width="72" height="8" rx="4" fill="#75859A"/>
  <rect x="119" y="308" width="274" height="64" rx="28" fill="#F2F6FA"/>
  <circle cx="151" cy="340" r="12" fill="#FFD65A"/>
  <rect x="179" y="327" width="155" height="11" rx="5.5" fill="#253242"/>
  <rect x="179" y="346" width="102" height="8" rx="4" fill="#75859A"/>
</svg>